<svg xmlns="http://www.w3.org/2000/svg" viewBox="0 0 810.98 300.61"><defs><style>.cls-1{fill:none;stroke:#22489f;}.cls-1,.cls-3,.cls-4{stroke-miterlimit:10;}.cls-2{opacity:0.35;}.cls-3{fill:#ed7b1d;}.cls-3,.cls-4{stroke:#000;}.cls-4{fill:#d87225;}</style></defs><g id="Calque_2" data-name="Calque 2"><g id="Maquette_Futur"><g id="LignesPerspective"><line class="cls-1" x1="286" y1="300.12" x2="0.5" y2="185.14"/><line class="cls-1" x1="109.45" y1="160.31" x2="487.05" y2="300.12"/><line class="cls-1" x1="215.79" y1="136.04" x2="693.59" y2="300.12"/><line class="cls-1" x1="311.9" y1="114.14" x2="810.68" y2="272.94"/><line class="cls-1" x1="411.74" y1="91.54" x2="810.68" y2="212.6"/><line class="cls-1" x1="498.2" y1="71.74" x2="810.68" y2="160.12"/><line class="cls-1" x1="572.94" y1="54.66" x2="810.68" y2="116.13"/><line class="cls-1" x1="810.82" y1="270.15" x2="716.69" y2="300.12"/><line class="cls-1" x1="810.68" y1="209.74" x2="512.22" y2="300.12"/><line class="cls-1" x1="810.68" y1="157.69" x2="307.1" y2="300.12"/><polyline class="cls-1" points="209.57 300.12 209.57 269.35 810.68 113.91"/><polyline class="cls-1" points="133.08 300.12 133.08 238.54 810.68 76.87"/><polyline class="cls-1" points="64.17 300.12 64.17 210.78 810.68 37.53"/><polyline class="cls-1" points="810.68 0.49 0.5 185.09 0.5 300.12"/><line class="cls-1" x1="656.69" y1="35.58" x2="810.68" y2="79.29"/><line class="cls-1" x1="736.58" y1="17.37" x2="810.82" y2="39.74"/></g><polygon class="cls-2" points="404.07 255.19 575.37 205.74 660.09 154.8 509.85 133.08 404.07 255.19"/><polygon class="cls-3" points="306.95 231.85 412.58 261.13 373.34 118.87 306.95 231.85"/><polygon class="cls-4" points="539.14 68.49 373.34 118.87 412.58 261.13 575.37 205.74 539.14 68.49"/></g></g></svg>