<svg xmlns="http://www.w3.org/2000/svg" xmlns:xlink="http://www.w3.org/1999/xlink" viewBox="0 0 810.98 323.1"><defs><style>.cls-1{fill:none;stroke:#22489f;}.cls-1,.cls-3{stroke-miterlimit:10;}.cls-2{opacity:0.35;}.cls-3{stroke:#000;fill:url(#Dégradé_sans_nom_11);}</style><linearGradient id="Dégradé_sans_nom_11" x1="337.77" y1="133.94" x2="538.05" y2="133.72" gradientUnits="userSpaceOnUse"><stop offset="0" stop-color="#ed7b1d"/><stop offset="0.68" stop-color="#d87225"/><stop offset="1" stop-color="#ed7b1d"/></linearGradient></defs><g id="Calque_2" data-name="Calque 2"><g id="Maquette_Projets"><g id="LignesPerspective"><line class="cls-1" x1="286" y1="322.62" x2="0.5" y2="207.63"/><line class="cls-1" x1="109.45" y1="182.8" x2="487.05" y2="322.62"/><line class="cls-1" x1="215.79" y1="158.53" x2="693.59" y2="322.62"/><line class="cls-1" x1="311.9" y1="136.63" x2="810.68" y2="295.43"/><line class="cls-1" x1="411.74" y1="114.03" x2="810.68" y2="235.09"/><line class="cls-1" x1="498.2" y1="94.23" x2="810.68" y2="182.61"/><line class="cls-1" x1="572.94" y1="77.15" x2="810.68" y2="138.63"/><line class="cls-1" x1="810.82" y1="292.64" x2="716.69" y2="322.62"/><line class="cls-1" x1="810.68" y1="232.23" x2="512.22" y2="322.62"/><line class="cls-1" x1="810.68" y1="180.18" x2="307.1" y2="322.62"/><polyline class="cls-1" points="209.57 322.62 209.57 291.84 810.68 136.4"/><polyline class="cls-1" points="133.08 322.62 133.08 261.03 810.68 99.36"/><polyline class="cls-1" points="64.17 322.62 64.17 233.28 810.68 60.03"/><polyline class="cls-1" points="810.68 22.98 0.5 207.58 0.5 322.62"/><line class="cls-1" x1="656.69" y1="58.07" x2="810.68" y2="101.78"/><line class="cls-1" x1="736.58" y1="39.86" x2="810.82" y2="62.23"/></g><path class="cls-2" d="M658.33,201.37c.2-13.89-61.13-37.64-130.54-30S404.29,205,407,229.2s61.12,37.64,130.54,30S658.12,215.27,658.33,201.37Z"/><path class="cls-3" d="M464.4,1.13,357.59,218.6c0,26.44,47.82,47.87,106.81,47.87S571.21,245,571.21,218.6Z"/></g></g></svg>