<svg xmlns="http://www.w3.org/2000/svg" viewBox="0 0 810.98 300.61"><defs><style>.cls-1{fill:none;stroke:#22489f;}.cls-1,.cls-3,.cls-4{stroke-miterlimit:10;}.cls-2{opacity:0.35;}.cls-3{fill:#ed7b1d;}.cls-3,.cls-4{stroke:#000;}.cls-4{fill:#d87225;}</style></defs><g id="Calque_2" data-name="Calque 2"><g id="Maquette_Parcours"><g id="LignesPerspective"><line class="cls-1" x1="286" y1="300.12" x2="0.5" y2="185.14"/><line class="cls-1" x1="109.45" y1="160.31" x2="487.05" y2="300.12"/><line class="cls-1" x1="215.79" y1="136.04" x2="693.59" y2="300.12"/><line class="cls-1" x1="311.9" y1="114.14" x2="810.68" y2="272.94"/><line class="cls-1" x1="411.74" y1="91.54" x2="810.68" y2="212.6"/><line class="cls-1" x1="498.2" y1="71.74" x2="810.68" y2="160.12"/><line class="cls-1" x1="572.94" y1="54.66" x2="810.68" y2="116.13"/><line class="cls-1" x1="810.82" y1="270.15" x2="716.69" y2="300.12"/><line class="cls-1" x1="810.68" y1="209.74" x2="512.22" y2="300.12"/><line class="cls-1" x1="810.68" y1="157.69" x2="307.1" y2="300.12"/><polyline class="cls-1" points="209.57 300.12 209.57 269.35 810.68 113.91"/><polyline class="cls-1" points="133.08 300.12 133.08 238.54 810.68 76.87"/><polyline class="cls-1" points="64.17 300.12 64.17 210.78 810.68 37.53"/><polyline class="cls-1" points="810.68 0.49 0.5 185.09 0.5 300.12"/><line class="cls-1" x1="656.69" y1="35.58" x2="810.68" y2="79.29"/><line class="cls-1" x1="736.58" y1="17.37" x2="810.82" y2="39.74"/></g><polygon class="cls-2" points="645.69 125.61 608.21 211.35 463.34 243.81 500.6 126.48 645.69 125.61"/><polygon class="cls-3" points="347.34 50.22 461.99 81.29 461.99 244.16 347.34 204.07 347.34 50.22"/><polygon class="cls-4" points="579.32 53.05 461.99 81.29 461.99 244.16 579.32 206.9 579.32 53.05"/><polygon class="cls-4" points="579.32 53.05 461.99 27.91 347.34 50.22 461.99 81.29 579.32 53.05"/></g></g></svg>