<svg xmlns="http://www.w3.org/2000/svg" viewBox="0 0 803.46 630.37"><defs><style>.cls-1{fill:none;stroke:#d0948c;stroke-miterlimit:10;}</style></defs><g id="Calque_2" data-name="Calque 2"><g id="Maquette_Accueil_Desktop"><g id="Header"><path class="cls-1" d="M180,.5s2.06,316.82,0,377.87-84.22,110-94.77,165c-7.78,40.61,0,86.88,0,86.88"/><path class="cls-1" d="M98.72.5s2.07,316.82,0,377.87S14.51,488.4,4,543.41C-3.83,584,4,630.29,4,630.29"/><path class="cls-1" d="M261.8.5s2.06,316.82,0,377.87-84.21,110-94.76,165c-7.79,40.61,0,86.88,0,86.88"/><path class="cls-1" d="M343.61.5s2.06,316.82,0,377.87-84.21,110-94.76,165c-7.79,40.61,0,86.88,0,86.88"/><path class="cls-1" d="M425.42.5s2.07,316.82,0,377.87-84.21,110-94.76,165c-7.79,40.61,0,86.88,0,86.88"/><path class="cls-1" d="M507.23.5s2.07,316.82,0,377.87-84.21,110-94.76,165c-7.79,40.61,0,86.88,0,86.88"/><path class="cls-1" d="M589,.5s2.07,316.82,0,377.87-84.21,110-94.76,165c-7.78,40.61,0,86.88,0,86.88"/><path class="cls-1" d="M671.08.5s2.06,316.82,0,377.87-84.21,110-94.77,165c-7.78,40.61,0,86.88,0,86.88"/><path class="cls-1" d="M751.44.5s2.07,316.82,0,377.87-84.21,110-94.76,165c-7.79,40.61,0,86.88,0,86.88"/><line class="cls-1" x1="98.72" y1="0.5" x2="675.71" y2="0.5"/><line class="cls-1" x1="99.39" y1="134.97" x2="803.46" y2="134.97"/><line class="cls-1" x1="99.64" y1="269.43" x2="803.46" y2="269.43"/><line class="cls-1" x1="98.72" y1="378.37" x2="803.46" y2="378.37"/><line class="cls-1" x1="51.71" y1="466.54" x2="760.74" y2="466.54"/><line class="cls-1" x1="3.21" y1="547.93" x2="721.92" y2="547.93"/><line class="cls-1" x1="0.5" y1="608.48" x2="721.92" y2="608.48"/><line class="cls-1" x1="99.59" y1="202.2" x2="803.46" y2="202.2"/></g></g></g></svg>