<svg xmlns="http://www.w3.org/2000/svg" viewBox="0 0 1550.95 195.56"><defs><style>.cls-1{fill:#d8edf2;}.cls-2{fill:none;stroke:#000;stroke-miterlimit:10;stroke-width:2px;stroke-dasharray:12.01 12.01;}</style></defs><g id="Layer_2" data-name="Layer 2"><g id="Maquette_Accueil_Desktop"><g id="Contenu"><g id="Parcours"><circle class="cls-1" cx="110.17" cy="102.39" r="93.17"/><circle class="cls-2" cx="92.77" cy="92.77" r="91.77"/><path id="Brush" d="M155.28,53.25a6.31,6.31,0,0,0-8.68.8L93,115.73a17.06,17.06,0,0,0-4.74-.71c-19,0-19,22.1-31.57,31.57,9.47,3.16,22.1,6.32,31.57,6.32A19,19,0,0,0,107.17,134a17.23,17.23,0,0,0-.31-3.14l49.63-68.93A6.31,6.31,0,0,0,155.28,53.25Zm-67,93.34c-5.22,0-12.38-1.15-20.17-3.19A94.88,94.88,0,0,0,73,135c4.83-9,7.7-13.62,15.21-13.62,5.84,0,12.62,5.51,12.62,12.62A12.63,12.63,0,0,1,88.23,146.59Z"/><circle class="cls-1" cx="447.07" cy="102.39" r="93.17"/><circle class="cls-2" cx="429.67" cy="92.77" r="91.77"/><g id="Controler"><path d="M501,98.13c-.85-2.3-1.58-4.59-2.3-6.77-3.15-9.56-5.81-17.91-12.83-21.3-4.48-2.18-10.29-2.06-17.55.48a32.1,32.1,0,0,0-4.23,1.82H430a31.65,31.65,0,0,0-4.24-1.82c-7.26-2.54-13.07-2.78-17.54-.48-7,3.51-9.68,11.74-12.83,21.3-.73,2.18-1.45,4.47-2.3,6.77-3.15,9-4.24,18.16-3,25.78,1.33,8.35,5.21,14.16,11,16.22s12.46.12,18.75-5.57c5.33-4.84,9.93-11.86,13.2-20h28.19a53.4,53.4,0,0,0,13.19,20c4.72,4.24,9.56,6.41,14.16,6.41a12,12,0,0,0,4.6-.84c5.81-2.06,9.68-7.75,11-16.22C505.24,116.29,504.15,107.09,501,98.13Zm-3.39,24.81c-1,5.81-3.39,9.93-6.78,11.14s-7.86-.37-12.22-4.36c-5-4.48-9.32-11.38-12.22-19.36a3.25,3.25,0,0,0-3-2.18H430.7a3.5,3.5,0,0,0-3.15,2.3c-2.78,8-7.14,14.88-12.1,19.36-4.36,4-8.84,5.57-12.23,4.36s-5.8-5.21-6.77-11.14c-1.09-6.65,0-14.64,2.78-22.63.85-2.3,1.57-4.72,2.3-6.89,2.66-8.23,5-15.25,9.56-17.55,2.91-1.45,7-1.21,12.59.84a30.72,30.72,0,0,1,4.11,1.82,3.27,3.27,0,0,0,1.45.36h35.58a3.28,3.28,0,0,0,1.46-.36,39.4,39.4,0,0,1,4.11-1.82C476,74.9,480.07,74.66,483,76c4.59,2.3,6.89,9.32,9.56,17.55.72,2.17,1.45,4.59,2.3,6.89h0C497.74,108.3,498.71,116.29,497.62,122.94Z"/><circle cx="474.75" cy="86.27" r="4.11"/><circle cx="482.73" cy="94.38" r="4.11"/><circle cx="466.64" cy="94.38" r="4.11"/><circle cx="474.75" cy="102.37" r="4.11"/><path d="M429.36,91.11h-6.29V84.82a.83.83,0,0,0-.85-.85h-4.71a.83.83,0,0,0-.85.85v6.29h-6.3a.83.83,0,0,0-.84.85v4.72a.82.82,0,0,0,.84.85h6.3v6.29a.83.83,0,0,0,.85.85h4.71a.83.83,0,0,0,.85-.85V97.53h6.29a.83.83,0,0,0,.85-.85V92A.83.83,0,0,0,429.36,91.11Z"/></g><circle class="cls-1" cx="783.97" cy="102.39" r="93.17"/><circle class="cls-2" cx="766.57" cy="92.77" r="91.77"/><g id="Video"><path d="M750.57,64.6a21.23,21.23,0,0,0-21.19,21.19v37.39a21.23,21.23,0,0,0,21.19,21.19h64.81a21.23,21.23,0,0,0,21.19-21.19V85.79A21.23,21.23,0,0,0,815.38,64.6Zm0,7.48h64.81a13.6,13.6,0,0,1,13.71,13.71v37.39a13.6,13.6,0,0,1-13.71,13.71H750.57a13.6,13.6,0,0,1-13.71-13.71V85.79A13.6,13.6,0,0,1,750.57,72.08Zm22.2,12.5a3.74,3.74,0,0,0-3.51,3.7v32.41a3.75,3.75,0,0,0,5.65,3.23l27.42-16.2a3.74,3.74,0,0,0,1.3-5.13,3.85,3.85,0,0,0-1.3-1.3l-27.42-16.2A3.74,3.74,0,0,0,772.77,84.58Zm4,10.28,16.32,9.62-16.32,9.66Z"/></g><circle class="cls-1" cx="1120.88" cy="102.39" r="93.17"/><circle class="cls-2" cx="1103.48" cy="92.77" r="91.77"/><g id="Web"><path d="M1170.9,63H1065.84a1.88,1.88,0,0,0-1.88,1.87v75a1.88,1.88,0,0,0,1.88,1.87H1170.9a1.87,1.87,0,0,0,1.87-1.87v-75A1.87,1.87,0,0,0,1170.9,63ZM1124,72.38h37.52a1.88,1.88,0,0,1,0,3.75H1124a1.88,1.88,0,1,1,0-3.75Zm-29.08-.94a2.82,2.82,0,1,1-2.82,2.81A2.81,2.81,0,0,1,1094.92,71.44Zm-8.44,0a2.82,2.82,0,1,1-2.82,2.81A2.81,2.81,0,0,1,1086.48,71.44Zm-8.45,0a2.82,2.82,0,1,1-2.81,2.81A2.81,2.81,0,0,1,1078,71.44Zm91,66.6h-101.3V85.51H1169Z"/><polygon points="1086.98 115.85 1106.59 124.16 1106.59 117.78 1093.61 113.2 1106.59 108.53 1106.59 102.17 1086.98 110.48 1086.98 115.85"/><polygon points="1109.18 130.12 1114.07 130.12 1126.29 94.12 1121.39 94.12 1109.18 130.12"/><polygon points="1129.63 102.19 1129.63 108.51 1142.85 113.14 1129.63 117.83 1129.63 124.18 1149.45 115.85 1149.45 110.5 1129.63 102.19"/></g><circle class="cls-1" cx="1457.78" cy="102.39" r="93.17"/><circle class="cls-2" cx="1440.38" cy="92.77" r="91.77"/><path d="M1504.89,116.55V50.82a2.45,2.45,0,0,0-2.44-2.44h-66.66a2.4,2.4,0,0,0-2.13,1.32L1403.6,80.28a2.41,2.41,0,0,0-1.11,1.39,2.45,2.45,0,0,0-.15,1.17V149a2.41,2.41,0,0,0,1.65,2.27,2.37,2.37,0,0,0,1,.26c.15,0,.28-.07.41-.08h66a2.38,2.38,0,0,0,2-1.07L1503,119.78a2.39,2.39,0,0,0,1.92-2.33V117A1.38,1.38,0,0,0,1504.89,116.55Zm-31,3.35h22.23l-22.23,23Zm-40.51-40h-22.58l22.58-23Zm-26.12,4.87h26.14v31.74l-26.14,26.8Zm31,30.22V84.81H1469V115Zm35.62-31.35L1500,57.31V115h-26.16Zm23.32-30.43-26.45,26.69h-32.49V53.25Zm-86.31,93.34,26-26.69H1469v26.69Z"/></g></g></g></g></svg>