<svg xmlns="http://www.w3.org/2000/svg" viewBox="0 0 396.39 151.21"><defs><style>.cls-1{fill:none;stroke:#baccba;stroke-miterlimit:10;stroke-width:5px;}</style></defs><g id="Calque_2" data-name="Calque 2"><g id="Maquette_Accueil_Desktop"><g id="Footer"><polyline class="cls-1" points="1.45 31.78 37.39 6.26 72.47 31.16 107.7 6.16 144.8 32.49 186.26 3.07 229.04 33.44 271.8 3.08 314.75 33.56 355.3 4.78 394.94 32.92"/><polyline class="cls-1" points="1.45 54.69 37.39 29.18 72.47 54.08 107.7 29.07 144.8 55.41 186.26 25.98 229.04 56.35 271.8 26 314.75 56.48 355.3 27.69 394.94 55.84"/><polyline class="cls-1" points="1.45 77.61 37.39 52.09 72.47 77 107.7 51.99 144.8 78.33 186.26 48.9 229.04 79.27 271.8 48.91 314.75 79.4 355.3 50.61 394.94 78.75"/><polyline class="cls-1" points="1.45 100.53 37.39 75.01 72.47 99.91 107.7 74.91 144.8 101.24 186.26 71.81 229.04 102.19 271.8 71.83 314.75 102.31 355.3 73.53 394.94 101.67"/><polyline class="cls-1" points="1.45 123.44 37.39 97.93 72.47 122.83 107.7 97.82 144.8 124.16 186.26 94.73 229.04 125.1 271.8 94.75 314.75 125.23 355.3 96.44 394.94 124.58"/><polyline class="cls-1" points="1.45 146.36 37.39 120.84 72.47 145.75 107.7 120.74 144.8 147.08 186.26 117.65 229.04 148.02 271.8 117.66 314.75 148.15 355.3 119.36 394.94 147.5"/></g></g></g></svg>